# xmcd
#
# Track frame offsets:
#	182
#	14082
#	30305
#	51182
#	66957
#	80775
#	106687
#	125525
#	141260
#	164530
#	183747
#	207577
#	225800
#	240817
#
# Disc length: 3414 seconds
#
# Revision: 0
# Processed by: cddbd v1.5.2PL0 Copyright (c) Steve Scherf et al.
# Submitted via: EZCDAudioConverter 1.0.6.1
#
DISCID=bc0d540e
DTITLE=Zydeco Force - The Zydeco Push
DYEAR=1994
DGENRE=
TTITLE0=Everyday talk
TTITLE1=Leave me alone
TTITLE2=Big dog, lil' dog
TTITLE3=Twelve o'clock drunk
TTITLE4=I'll take you there
TTITLE5=Zydeco push
TTITLE6=Roaches
TTITLE7=Love drip
TTITLE8=Where'd you get that thing?
TTITLE9=Electric zydeco
TTITLE10=I'm on a wonder
TTITLE11=12-string boogie
TTITLE12=Lonesome waltz
TTITLE13=Woe bye
EXTD=
EXTT0=
EXTT1=
EXTT2=
EXTT3=
EXTT4=
EXTT5=
EXTT6=
EXTT7=
EXTT8=
EXTT9=
EXTT10=
EXTT11=
EXTT12=
EXTT13=
PLAYORDER=
